<svg width="28" height="20" viewBox="0 0 28 20" fill="none" xmlns="http://www.w3.org/2000/svg">
<path d="M0 10C0 6.26154 0 4.3923 0.803847 3C1.33046 2.08788 2.08788 1.33046 3 0.803847C4.3923 0 6.26154 0 10 0H18C21.7385 0 23.6077 0 25 0.803847C25.9121 1.33046 26.6695 2.08788 27.1962 3C28 4.3923 28 6.26154 28 10V10C28 13.7385 28 15.6077 27.1962 17C26.6695 17.9121 25.9121 18.6695 25 19.1962C23.6077 20 21.7385 20 18 20H10C6.26154 20 4.3923 20 3 19.1962C2.08788 18.6695 1.33046 17.9121 0.803847 17C0 15.6077 0 13.7385 0 10V10Z" fill="white"/>
<g clip-path="url(#clip0_2635_500)">
<path fill-rule="evenodd" clip-rule="evenodd" d="M16.368 12.3583C16.4975 12.0247 16.7856 11.2773 16.6486 11.0962H16.6496C16.5132 10.9147 15.7474 11.0099 15.4029 11.0528C15.2981 11.0658 15.2813 10.9714 15.3755 10.9031C15.9871 10.4578 16.9892 10.5852 17.1055 10.7355C17.2219 10.8858 17.0738 11.9266 16.501 12.4235C16.4128 12.4997 16.3287 12.459 16.368 12.3583ZM12.2524 12.8729C13.5844 12.8729 15.1357 12.437 16.2042 11.6202V11.6217C16.3811 11.484 16.2294 11.2814 16.0491 11.3608C14.8827 11.8705 13.6306 12.1365 12.3647 12.1437C10.6084 12.1437 8.90962 11.6447 7.53523 10.8164C7.41482 10.7438 7.32515 10.8717 7.42591 10.9651C8.74905 12.2019 10.4703 12.8823 12.2524 12.8729Z" fill="#FF9900"/>
<path fill-rule="evenodd" clip-rule="evenodd" d="M20.9629 10.4267H21.5302C21.5895 10.4278 21.6393 10.3795 21.6415 10.3181V8.68908C21.6415 8.48448 21.6521 8.29971 21.7317 8.11494C21.7864 7.97438 21.9151 7.87975 22.0612 7.87275C22.4241 7.87275 22.4206 8.2847 22.4178 8.60834C22.4176 8.63563 22.4174 8.6623 22.4174 8.68804V10.3317C22.4244 10.3844 22.4668 10.4244 22.5182 10.4267H23.0905C23.1447 10.4278 23.1915 10.3872 23.1998 10.3317V8.42707C23.1998 8.13425 23.1998 7.72661 23.0512 7.48442C22.8905 7.22345 22.6416 7.12793 22.3867 7.12793C21.9937 7.12793 21.7705 7.32523 21.6113 7.73913H21.6002V7.27616C21.5887 7.22776 21.5475 7.19321 21.4995 7.19161H20.9715C20.9157 7.19019 20.8681 7.2333 20.8621 7.29078V10.3181C20.8629 10.3761 20.9069 10.4236 20.9629 10.4267ZM20.4289 8.8389C20.4289 7.88373 19.9719 7.13212 19.127 7.13212C18.3038 7.13212 17.8469 7.8712 17.8469 8.80706C17.8469 9.74292 18.2983 10.4945 19.127 10.4945C19.9251 10.4945 20.4289 9.76223 20.4289 8.8389ZM18.6862 8.71151C18.6862 8.34197 18.7129 7.75008 19.1326 7.75008C19.313 7.75008 19.4404 7.83411 19.5044 8.04289C19.579 8.28456 19.5895 8.59042 19.5895 8.84513C19.5895 9.23346 19.5729 9.87024 19.127 9.87024C18.686 9.87024 18.6862 9.09819 18.6862 8.72376V8.71151ZM8.04079 10.4329H8.60958C8.63813 10.4336 8.66628 10.4225 8.68689 10.402C8.7075 10.3815 8.71939 10.3534 8.71992 10.3238V8.71988L8.71991 8.69477C8.71967 8.34601 8.71936 7.88475 9.11289 7.88475C9.47669 7.88475 9.47106 8.29003 9.46652 8.6173C9.46603 8.65254 9.46555 8.68706 9.46555 8.71988V10.3243C9.46652 10.3823 9.51047 10.4296 9.56631 10.4329H10.1366C10.1651 10.4335 10.1926 10.4223 10.2131 10.4018C10.2336 10.3814 10.2454 10.3533 10.2459 10.3238V8.71988L10.2459 8.68174C10.2455 8.5118 10.2451 8.28247 10.2993 8.13999C10.3547 7.99435 10.4884 7.89684 10.6394 7.89206C10.8042 7.89206 10.9316 7.94948 10.9739 8.15304C10.9955 8.25101 10.9927 8.47812 10.9909 8.62873C10.9905 8.66423 10.9901 8.69559 10.9901 8.71988V10.3243C10.9908 10.3824 11.0349 10.4299 11.0908 10.4329H11.6596C11.6882 10.4336 11.7158 10.4225 11.7364 10.402C11.757 10.3815 11.7689 10.3534 11.7695 10.3238V8.41401C11.7695 8.36745 11.7702 8.31986 11.771 8.27176C11.7757 7.98659 11.7806 7.68305 11.6259 7.46511C11.4383 7.21789 11.1366 7.0947 10.8366 7.14283C10.5366 7.19096 10.2851 7.40294 10.1784 7.69737C10.0187 7.31478 9.79051 7.1368 9.43986 7.1368C9.08921 7.1368 8.82874 7.31478 8.6907 7.69737H8.68012V7.30226C8.67712 7.24594 8.63371 7.20097 8.57935 7.19787H8.04885C7.99026 7.19727 7.94194 7.24525 7.94002 7.30591V10.3332C7.94519 10.3877 7.98802 10.4301 8.04079 10.4329ZM7.05081 10.4559C7.01335 10.4896 6.95951 10.4952 6.9163 10.47C6.7551 10.3311 6.7065 10.256 6.63186 10.1406C6.61906 10.1208 6.60537 10.0997 6.59033 10.077C6.27747 10.4069 6.0563 10.5055 5.65174 10.5055C5.17262 10.5055 4.7998 10.1991 4.7998 9.58638C4.7998 9.10775 5.05171 8.78257 5.40437 8.62286C5.66479 8.50446 6.01224 8.46772 6.31264 8.43595C6.36845 8.43005 6.42276 8.4243 6.47446 8.41825V8.34205L6.47469 8.29766C6.47568 8.16772 6.47679 8.02306 6.40544 7.91405C6.33591 7.80548 6.20391 7.76111 6.08602 7.76111C5.86888 7.76111 5.67542 7.87647 5.62806 8.115C5.62206 8.17064 5.58073 8.21517 5.5273 8.22356L4.98017 8.16145C4.95287 8.1574 4.92836 8.14193 4.91236 8.11865C4.89637 8.09538 4.89028 8.06632 4.89553 8.03827C5.02198 7.34512 5.62655 7.13582 6.16814 7.13582C6.44524 7.13582 6.80697 7.21202 7.02461 7.42915C7.28011 7.67698 7.27853 8.00141 7.2768 8.35595L7.27652 8.44435V9.36246C7.27652 9.60973 7.36507 9.73272 7.45835 9.86228C7.46943 9.87767 7.48057 9.89315 7.49164 9.90894C7.52792 9.96114 7.53598 10.0264 7.49164 10.0655C7.37526 10.1663 7.1687 10.3521 7.05535 10.457L7.05081 10.4559ZM6.47695 9.01844L6.47697 9.04702C6.47717 9.26412 6.47734 9.44822 6.37065 9.64478C6.27996 9.81076 6.13638 9.91306 5.97617 9.91306C5.75802 9.91306 5.63056 9.74082 5.63056 9.48506C5.63056 8.98295 6.06534 8.89161 6.47695 8.89161V9.01844ZM14.9177 9.86004C14.9288 9.87545 14.9399 9.89095 14.951 9.90677C14.9893 9.96105 14.9974 10.0247 14.9485 10.0607C14.8321 10.1615 14.6255 10.3478 14.5122 10.4522C14.4745 10.4854 14.4208 10.4908 14.3777 10.4658C14.2158 10.3262 14.1678 10.2522 14.0921 10.1354C14.0795 10.1159 14.0661 10.0952 14.0512 10.0727C13.7388 10.4026 13.5162 10.5013 13.1131 10.5013C12.634 10.5013 12.2612 10.1949 12.2612 9.58264C12.2612 9.10349 12.5116 8.77831 12.8683 8.6186C13.1292 8.49976 13.4787 8.46318 13.7799 8.43164C13.8346 8.42592 13.8877 8.42036 13.9384 8.41451V8.33987L13.9386 8.29571C13.9396 8.16572 13.9407 8.02101 13.8688 7.9124C13.8013 7.80383 13.6668 7.75894 13.5494 7.75894C13.3323 7.75894 13.1398 7.87429 13.092 8.11283C13.0858 8.16839 13.0446 8.21283 12.9912 8.22139L12.4395 8.1598C12.412 8.15589 12.3873 8.1404 12.3712 8.11699C12.3551 8.09357 12.349 8.06431 12.3544 8.0361C12.4813 7.34243 13.0859 7.13365 13.6275 7.13365C13.9041 7.13365 14.2658 7.20985 14.484 7.42698C14.74 7.67352 14.7382 7.99544 14.7362 8.34817C14.7361 8.37928 14.7359 8.41062 14.7359 8.44218V9.36081C14.7359 9.60756 14.8244 9.73051 14.9177 9.86004ZM13.4386 9.9099C13.5983 9.9099 13.7424 9.8076 13.8326 9.64214C13.9396 9.44451 13.9395 9.25954 13.9394 9.03972L13.9394 9.01632V8.88896C13.5278 8.88896 13.093 8.97978 13.093 9.48242C13.093 9.73766 13.2204 9.9099 13.4386 9.9099ZM15.4326 7.2955V7.72664C15.4323 7.75621 15.4437 7.78462 15.4642 7.80523C15.4847 7.82585 15.5124 7.83687 15.5409 7.83572H16.5203L15.3974 9.50597C15.3461 9.59556 15.3219 9.69899 15.3278 9.80296V10.244C15.3278 10.3077 15.3959 10.3802 15.4608 10.3442C16.0802 10.0115 16.8168 10.0101 17.4373 10.3406C17.5083 10.3787 17.5753 10.3051 17.5753 10.2414V9.7779C17.5734 9.70703 17.5349 9.64267 17.4746 9.60931C17.1476 9.4188 16.7672 9.36295 16.4075 9.37183L17.3768 7.93855C17.467 7.81015 17.5174 7.72872 17.5174 7.66661V7.2955C17.5177 7.26602 17.5063 7.2377 17.486 7.2171C17.4656 7.1965 17.438 7.18542 17.4096 7.18642H15.5389C15.5105 7.18476 15.4826 7.19568 15.4624 7.21648C15.4421 7.23727 15.4313 7.26599 15.4326 7.2955Z" fill="black"/>
</g>
<defs>
<clipPath id="clip0_2635_500">
<rect width="20" height="6" fill="white" transform="translate(4 7)"/>
</clipPath>
</defs>
</svg>
