<svg width="28" height="20" viewBox="0 0 28 20" fill="none" xmlns="http://www.w3.org/2000/svg">
<path d="M0 10C0 6.26154 0 4.3923 0.803847 3C1.33046 2.08788 2.08788 1.33046 3 0.803847C4.3923 0 6.26154 0 10 0H18C21.7385 0 23.6077 0 25 0.803847C25.9121 1.33046 26.6695 2.08788 27.1962 3C28 4.3923 28 6.26154 28 10V10C28 13.7385 28 15.6077 27.1962 17C26.6695 17.9121 25.9121 18.6695 25 19.1962C23.6077 20 21.7385 20 18 20H10C6.26154 20 4.3923 20 3 19.1962C2.08788 18.6695 1.33046 17.9121 0.803847 17C0 15.6077 0 13.7385 0 10V10Z" fill="#1F72CD"/>
<path fill-rule="evenodd" clip-rule="evenodd" d="M7.03145 7.73438L5 12.2596H7.43193L7.73341 11.5381H8.42255L8.72404 12.2596H11.4009V11.7089L11.6394 12.2596H13.0241L13.2626 11.6973V12.2596H18.8298L19.5067 11.5568L20.1406 12.2596L23 12.2654L20.9621 10.0096L23 7.73438H20.1849L19.526 8.42416L18.9121 7.73438H12.8557L12.3357 8.90237L11.8034 7.73438H9.37658V8.26631L9.10661 7.73438H7.03145ZM15.3447 8.37695H18.5417L19.5194 9.44012L20.5287 8.37695H21.5065L20.0209 10.009L21.5065 11.6222H20.4844L19.5066 10.5467L18.4922 11.6222H15.3447V8.37695ZM16.1342 9.64216V9.0494V9.04883H18.129L18.9994 9.99681L18.0904 10.95H16.1342V10.3028H17.8783V9.64216H16.1342ZM7.50203 8.37695H8.68746L10.0349 11.4455V8.37695H11.3335L12.3743 10.5771L13.3334 8.37695H14.6256V11.6241H13.8393L13.8329 9.07965L12.6867 11.6241H11.9834L10.8307 9.07965V11.6241H9.2133L8.90667 10.8961H7.25004L6.94404 11.6235H6.07744L7.50203 8.37695ZM7.5328 10.2236L8.0786 8.92676L8.62375 10.2236H7.5328Z" fill="white"/>
</svg>
