<svg width="28" height="20" viewBox="0 0 28 20" fill="none" xmlns="http://www.w3.org/2000/svg">
<path d="M0 10C0 6.26154 0 4.3923 0.803847 3C1.33046 2.08788 2.08788 1.33046 3 0.803847C4.3923 0 6.26154 0 10 0H18C21.7385 0 23.6077 0 25 0.803847C25.9121 1.33046 26.6695 2.08788 27.1962 3C28 4.3923 28 6.26154 28 10V10C28 13.7385 28 15.6077 27.1962 17C26.6695 17.9121 25.9121 18.6695 25 19.1962C23.6077 20 21.7385 20 18 20H10C6.26154 20 4.3923 20 3 19.1962C2.08788 18.6695 1.33046 17.9121 0.803847 17C0 15.6077 0 13.7385 0 10V10Z" fill="white"/>
<path fill-rule="evenodd" clip-rule="evenodd" d="M7.96309 7.81598C8.27197 7.84242 8.58085 7.65738 8.77391 7.42278C8.96374 7.18158 9.08923 6.85776 9.05705 6.52734C8.78356 6.54056 8.44572 6.71238 8.25266 6.95359C8.0757 7.16175 7.92448 7.49878 7.96309 7.81598ZM11.6375 12.0718V6.92054H13.5198C14.4915 6.92054 15.1704 7.60781 15.1704 8.61229C15.1704 9.61677 14.4786 10.3106 13.4941 10.3106H12.4162V12.0718H11.6375ZM9.05382 7.87877C8.7817 7.86269 8.5334 7.96282 8.33284 8.04369C8.20378 8.09573 8.09448 8.13981 8.01134 8.13981C7.91803 8.13981 7.80422 8.09338 7.67644 8.04125C7.50901 7.97294 7.31759 7.89485 7.11686 7.8986C6.65675 7.90521 6.22882 8.17285 5.99394 8.59909C5.5113 9.45157 5.86845 10.7138 6.335 11.4077C6.56344 11.7513 6.83693 12.128 7.1973 12.1148C7.35584 12.1086 7.46988 12.0589 7.5879 12.0075C7.72378 11.9483 7.86494 11.8868 8.08534 11.8868C8.2981 11.8868 8.43308 11.9467 8.56265 12.0042C8.68586 12.0589 8.80417 12.1114 8.97982 12.1081C9.35305 12.1015 9.58793 11.7645 9.81638 11.4209C10.0629 11.0521 10.1712 10.6921 10.1877 10.6375L10.1896 10.6312C10.1892 10.6308 10.1862 10.6293 10.1809 10.6268L10.1808 10.6268L10.1808 10.6268C10.0984 10.5881 9.46849 10.2919 9.46245 9.49783C9.45638 8.8313 9.96206 8.4936 10.0417 8.44043L10.0417 8.44043L10.0417 8.44043C10.0465 8.43719 10.0498 8.43502 10.0513 8.43388C9.7295 7.94486 9.22757 7.89199 9.05382 7.87877ZM16.5926 12.1114C17.0816 12.1114 17.5353 11.857 17.7412 11.4539H17.7573V12.0718H18.4781V9.50771C18.4781 8.76427 17.8989 8.28516 17.0076 8.28516C16.1807 8.28516 15.5694 8.77088 15.5469 9.43833H16.2483C16.3062 9.12112 16.5926 8.91296 16.9851 8.91296C17.4613 8.91296 17.7284 9.14095 17.7284 9.56058V9.84474L16.7567 9.90422C15.8525 9.96039 15.3635 10.3404 15.3635 11.0012C15.3635 11.6687 15.8686 12.1114 16.5926 12.1114ZM16.8017 11.5002C16.3866 11.5002 16.1228 11.2953 16.1228 10.9814C16.1228 10.6576 16.377 10.4692 16.8628 10.4395L17.7283 10.3833V10.6741C17.7283 11.1565 17.3294 11.5002 16.8017 11.5002ZM20.8687 12.2733C20.5566 13.1754 20.1994 13.4728 19.4401 13.4728C19.3822 13.4728 19.1891 13.4662 19.1441 13.4529V12.8351C19.1923 12.8417 19.3114 12.8483 19.3725 12.8483C19.7168 12.8483 19.9099 12.6996 20.0289 12.313L20.0997 12.085L18.7805 8.33474H19.5945L20.5115 11.3779H20.5276L21.4446 8.33474H22.2361L20.8687 12.2733ZM12.4161 7.59461H13.3138C13.9895 7.59461 14.3756 7.96468 14.3756 8.61561C14.3756 9.26653 13.9895 9.63991 13.3106 9.63991H12.4161V7.59461Z" fill="black"/>
</svg>
