<svg width="28" height="20" viewBox="0 0 28 20" fill="none" xmlns="http://www.w3.org/2000/svg">
<path d="M0 10C0 6.26154 0 4.3923 0.803847 3C1.33046 2.08788 2.08788 1.33046 3 0.803847C4.3923 0 6.26154 0 10 0H18C21.7385 0 23.6077 0 25 0.803847C25.9121 1.33046 26.6695 2.08788 27.1962 3C28 4.3923 28 6.26154 28 10V10C28 13.7385 28 15.6077 27.1962 17C26.6695 17.9121 25.9121 18.6695 25 19.1962C23.6077 20 21.7385 20 18 20H10C6.26154 20 4.3923 20 3 19.1962C2.08788 18.6695 1.33046 17.9121 0.803847 17C0 15.6077 0 13.7385 0 10V10Z" fill="#00D54B"/>
<path d="M13.5613 13.1246C12.715 13.1232 11.8963 12.8058 11.2503 12.2286C11.1836 12.1648 11.0963 12.1303 11.0063 12.1322C10.9162 12.1342 10.8304 12.1724 10.7662 12.2391L10.1007 12.9437C10.0674 12.9787 10.0412 13.0205 10.0239 13.0667C10.0066 13.1128 9.99854 13.1623 10.0002 13.2119C10.0019 13.2615 10.0133 13.3102 10.0337 13.3549C10.0541 13.3996 10.083 13.4394 10.1187 13.4717C10.6413 13.9411 11.2456 14.2983 11.8978 14.5234L11.6985 15.5604C11.6882 15.6137 11.6892 15.6687 11.7016 15.7215C11.7139 15.7744 11.7373 15.8236 11.7699 15.8657C11.8025 15.9078 11.8436 15.9417 11.8902 15.9649C11.9368 15.9882 11.9877 16.0001 12.0392 16H13.3203C13.3997 16.0001 13.4767 15.9716 13.5386 15.9192C13.6006 15.8668 13.6437 15.7936 13.661 15.7118L13.8403 14.7842C15.5457 14.6958 16.9921 13.804 16.9921 11.9762C16.9921 10.3965 15.7967 9.7171 14.5336 9.24171C13.3383 8.77268 12.7047 8.59802 12.7047 7.93759C12.7047 7.27716 13.3362 6.86069 14.2666 6.86069C15.1695 6.84544 16.0419 7.2058 16.6952 7.86391C16.7601 7.93122 16.8474 7.96895 16.9383 7.96895C17.0292 7.96895 17.1165 7.93122 17.1814 7.86391L17.8946 7.12784C17.928 7.0939 17.9545 7.05322 17.9726 7.00823C17.9907 6.96323 18 6.91485 18 6.86597C18 6.81709 17.9907 6.7687 17.9726 6.72371C17.9545 6.67872 17.928 6.63804 17.8946 6.6041C17.3135 6.02942 16.6042 5.61916 15.8326 5.41145L16.0318 4.45018C16.0424 4.39648 16.0416 4.34098 16.0296 4.28763C16.0176 4.23428 15.9946 4.18436 15.9623 4.14142C15.93 4.09847 15.8891 4.06355 15.8426 4.03911C15.7961 4.01467 15.7451 4.00132 15.6932 4.00001H14.4081C14.3281 3.99955 14.2504 4.02815 14.188 4.081C14.1256 4.13385 14.0823 4.20774 14.0654 4.29029L13.8801 5.20108C11.836 5.33361 10.5869 6.49464 10.5869 8.19424C10.5869 9.75916 11.8321 10.4196 13.3442 10.9581C14.2089 11.301 14.956 11.526 14.956 12.2033C14.956 12.8806 14.2587 13.1246 13.5613 13.1246Z" fill="white"/>
</svg>
