<svg width="28" height="20" viewBox="0 0 29 20" fill="none" xmlns="http://www.w3.org/2000/svg">
<path d="M0.699951 10C0.699951 8.12157 0.70043 6.74617 0.798391 5.66532C0.895729 4.59135 1.08615 3.85737 1.43681 3.25C1.91954 2.41389 2.61385 1.71959 3.44995 1.23686C4.05732 0.886195 4.7913 0.695778 5.86527 0.59844C6.94612 0.500479 8.32152 0.5 10.2 0.5H18.2C20.0784 0.5 21.4538 0.500479 22.5346 0.59844C23.6086 0.695778 24.3426 0.886195 24.95 1.23686C25.7861 1.71959 26.4804 2.41389 26.9631 3.25C27.3138 3.85737 27.5042 4.59135 27.6015 5.66532C27.6995 6.74617 27.7 8.12157 27.7 10C27.7 11.8784 27.6995 13.2538 27.6015 14.3347C27.5042 15.4087 27.3138 16.1426 26.9631 16.75C26.4804 17.5861 25.7861 18.2804 24.95 18.7631C24.3426 19.1138 23.6086 19.3042 22.5346 19.4016C21.4538 19.4995 20.0784 19.5 18.2 19.5H10.2C8.32152 19.5 6.94612 19.4995 5.86527 19.4016C4.7913 19.3042 4.05732 19.1138 3.44995 18.7631C2.61385 18.2804 1.91954 17.5861 1.43681 16.75C1.08615 16.1426 0.895729 15.4087 0.798391 14.3347C0.70043 13.2538 0.699951 11.8784 0.699951 10Z" stroke="white" stroke-opacity="0.1"/>
<path fill-rule="evenodd" clip-rule="evenodd" d="M13.0021 15.9705H15.1401C18.4773 15.9705 21.1368 13.3228 21.241 10.0522V10.0003C21.1889 6.6777 18.4773 3.97812 15.1401 4.03003H12.7414C9.56052 4.13386 7.05755 6.83344 7.16184 10.0522C7.16184 13.2709 9.7691 15.9186 13.0021 15.9705ZM8.20474 10.0002C8.20474 7.30065 10.447 5.06831 13.1585 5.06831C15.8701 5.06831 18.1123 7.30065 18.1123 10.0002C18.1123 12.6998 15.8701 14.9321 13.1585 14.9321C10.447 14.9321 8.20474 12.6998 8.20474 10.0002ZM13.9407 13.3228V6.72959C15.7658 7.19683 16.913 9.01385 16.4437 10.8309C16.1308 12.0768 15.1922 13.0113 13.9407 13.3228ZM9.92553 9.1696C9.45623 10.9866 10.5513 12.8556 12.3764 13.3228V6.72959C11.177 7.04108 10.2384 7.97555 9.92553 9.1696Z" fill="#0079BE"/>
</svg>
