<svg width="28" height="20" viewBox="0 0 28 20" fill="none" xmlns="http://www.w3.org/2000/svg">
<path d="M0 10C0 6.26154 0 4.3923 0.803847 3C1.33046 2.08788 2.08788 1.33046 3 0.803847C4.3923 0 6.26154 0 10 0H18C21.7385 0 23.6077 0 25 0.803847C25.9121 1.33046 26.6695 2.08788 27.1962 3C28 4.3923 28 6.26154 28 10V10C28 13.7385 28 15.6077 27.1962 17C26.6695 17.9121 25.9121 18.6695 25 19.1962C23.6077 20 21.7385 20 18 20H10C6.26154 20 4.3923 20 3 19.1962C2.08788 18.6695 1.33046 17.9121 0.803847 17C0 15.6077 0 13.7385 0 10V10Z" fill="white"/>
<g clip-path="url(#clip0_2635_500)">
<path fill-rule="evenodd" clip-rule="evenodd" d="M22.1358 8.4069C22.8327 8.4069 23.216 8.72926 23.216 9.33817C23.2508 9.8038 22.9372 10.1978 22.5191 10.2694L23.4599 11.5947H22.7282L21.9268 10.3053H21.8571V11.5947H21.2648V8.4069H22.1358ZM21.8571 9.87545H22.0313C22.4146 9.87545 22.5888 9.69636 22.5888 9.374C22.5888 9.08746 22.4146 8.90837 22.0313 8.90837H21.8571V9.87545ZM19.209 11.5947H20.8815V11.0574H19.8013V10.1978H20.8466V9.66053H19.8013V8.94417H20.8815V8.4069H19.209V11.5947ZM17.4668 10.556L16.6654 8.4069H16.0383L17.3275 11.6663H17.6411L18.9303 8.4069H18.3031L17.4668 10.556ZM10.3937 10.0187C10.3937 10.9142 11.0906 11.6663 11.9616 11.6663C12.2404 11.6663 12.4843 11.5947 12.7282 11.4873V10.7709C12.554 10.9858 12.3101 11.1291 12.0313 11.1291C11.4738 11.1291 11.0209 10.6993 11.0209 10.1262V10.0545C10.986 9.48145 11.439 8.98 11.9965 8.94418C12.2752 8.94418 12.554 9.08745 12.7282 9.30236V8.586C12.5191 8.44273 12.2404 8.40691 11.9965 8.40691C11.0906 8.33527 10.3937 9.08745 10.3937 10.0187ZM9.31356 9.62472C8.96513 9.48145 8.8606 9.40981 8.8606 9.23072C8.89544 9.01581 9.06965 8.83672 9.27871 8.87254C9.45293 8.87254 9.62715 8.97999 9.76652 9.12327L10.0801 8.69345C9.8362 8.47854 9.52262 8.33527 9.20903 8.33527C8.72122 8.29945 8.30311 8.69345 8.26826 9.1949V9.23072C8.26826 9.66054 8.44248 9.91126 8.99997 10.0904C9.13934 10.1262 9.27871 10.1978 9.41809 10.2694C9.52262 10.3411 9.5923 10.4485 9.5923 10.5918C9.5923 10.8425 9.38324 11.0574 9.17418 11.0574H9.13934C8.8606 11.0574 8.61669 10.8784 8.51216 10.6276L8.12889 11.0216C8.33795 11.4156 8.75607 11.6305 9.17418 11.6305C9.73167 11.6663 10.1846 11.2365 10.2195 10.6634V10.556C10.1846 10.1262 10.0104 9.91126 9.31356 9.62472ZM7.29265 11.5947H7.88499V8.4069H7.29265V11.5947ZM4.54004 8.40692H5.41112H5.58533C6.42157 8.44273 7.08359 9.15909 7.04875 10.0187C7.04875 10.4844 6.83969 10.9142 6.49126 11.2365C6.17767 11.4873 5.79439 11.6305 5.41112 11.5947H4.54004V8.40692ZM5.30659 11.0574C5.58534 11.0933 5.89893 10.9858 6.10799 10.8067C6.31704 10.5918 6.42157 10.3053 6.42157 9.9829C6.42157 9.69635 6.31704 9.40981 6.10799 9.1949C5.89893 9.01581 5.58534 8.90836 5.30659 8.94417H5.13238V11.0574H5.30659Z" fill="black"/>
<path fill-rule="evenodd" clip-rule="evenodd" d="M14.5051 8.33301C13.6341 8.33301 12.9023 9.04937 12.9023 9.98063C12.9023 10.8761 13.5992 11.6283 14.5051 11.6641C15.4111 11.6999 16.1079 10.9477 16.1428 10.0164C16.1079 9.08519 15.4111 8.33301 14.5051 8.33301Z" fill="black"/>
</g>
<defs>
<clipPath id="clip0_2635_500">
<rect width="20" height="4" fill="white" transform="translate(4 8)"/>
</clipPath>
</defs>
</svg>
