<svg width="28" height="20" viewBox="0 0 28 20" fill="none" xmlns="http://www.w3.org/2000/svg">
<path d="M0 10C0 6.26154 0 4.3923 0.803847 3C1.33046 2.08788 2.08788 1.33046 3 0.803847C4.3923 0 6.26154 0 10 0H18C21.7385 0 23.6077 0 25 0.803847C25.9121 1.33046 26.6695 2.08788 27.1962 3C28 4.3923 28 6.26154 28 10V10C28 13.7385 28 15.6077 27.1962 17C26.6695 17.9121 25.9121 18.6695 25 19.1962C23.6077 20 21.7385 20 18 20H10C6.26154 20 4.3923 20 3 19.1962C2.08788 18.6695 1.33046 17.9121 0.803847 17C0 15.6077 0 13.7385 0 10V10Z" fill="white"/>
<path d="M10.2151 10.3711C10.028 11.2729 9.21581 11.951 8.24233 11.951C8.01898 11.951 7.80399 11.9152 7.6034 11.8492L7.15625 13.1612C7.4975 13.2734 7.86261 13.3341 8.24233 13.3341C9.89704 13.3341 11.2773 12.181 11.5954 10.6486L10.2151 10.3711Z" fill="#EC412A"/>
<path fill-rule="evenodd" clip-rule="evenodd" d="M18.2385 7.4082V11.2017L18.9192 11.4746L18.5972 12.2228L17.924 11.9522C17.7726 11.8887 17.6702 11.792 17.5923 11.6828C17.5176 11.571 17.4622 11.4183 17.4622 11.2122V7.4082H18.2385ZM13.0754 10.2277C13.0924 9.14284 14.0162 8.27688 15.1372 8.29349C16.0887 8.30792 16.8771 8.95237 17.0841 9.8095L13.4042 11.3304C13.1904 11.0144 13.0689 10.6342 13.0754 10.2277ZM13.9175 10.3798C13.9124 10.3343 13.9088 10.2876 13.9102 10.2405C13.9208 9.60137 14.4647 9.09137 15.1251 9.10196C15.4846 9.1066 15.8039 9.26579 16.0197 9.51218L13.9175 10.3798ZM15.9422 11.084C15.7204 11.2927 15.4196 11.4198 15.0875 11.4152C14.8599 11.4115 14.649 11.3456 14.4697 11.2358L14.0251 11.9208C14.3296 12.1069 14.6886 12.217 15.0756 12.2228C15.6389 12.2309 16.1524 12.0169 16.5258 11.6635L15.9422 11.084ZM21.0718 9.10187C20.9392 9.10187 20.8117 9.1226 20.6926 9.16124L20.4278 8.39368C20.6299 8.3284 20.8464 8.29294 21.0718 8.29294C22.055 8.29294 22.8752 8.96832 23.0633 9.86548L22.2433 10.0271C22.1328 9.49912 21.6503 9.10187 21.0718 9.10187ZM19.7254 11.7298L20.2795 11.124C20.0321 10.9121 19.8762 10.6027 19.8762 10.2578C19.8762 9.91332 20.0321 9.60407 20.2793 9.39238L19.7248 8.7865C19.3045 9.14649 19.0396 9.6725 19.0396 10.2578C19.0396 10.8439 19.3047 11.3697 19.7254 11.7298ZM21.0717 11.4142C21.6497 11.4142 22.1322 11.0172 22.2433 10.49L23.063 10.6523C22.874 11.5486 22.054 12.223 21.0717 12.223C20.8462 12.223 20.6294 12.1874 20.4267 12.1218L20.6922 11.3545C20.8115 11.3931 20.939 11.4142 21.0717 11.4142Z" fill="black"/>
<path d="M5.95947 12.5934L6.78617 11.5259C6.41715 11.1527 6.18424 10.6078 6.18424 10.0004C6.18424 9.39341 6.41694 8.84849 6.78585 8.47552L5.95871 7.4082C5.33167 8.04235 4.93652 8.96866 4.93652 10.0004C4.93652 11.0326 5.33224 11.9592 5.95947 12.5934" fill="#1BA7DE"/>
<path d="M7.60276 8.15053C7.80334 8.08477 8.0179 8.04907 8.24116 8.04907C9.21551 8.04907 10.0282 8.72802 10.2147 9.62995L11.5954 9.35378C11.2786 7.82089 9.8974 6.66699 8.24116 6.66699C7.86197 6.66699 7.49697 6.72759 7.15625 6.83922L7.60276 8.15053Z" fill="#FECA2F"/>
</svg>
