<svg width="28" height="20" viewBox="0 0 28 20" fill="none" xmlns="http://www.w3.org/2000/svg">
<path d="M0 10C0 6.26154 0 4.3923 0.803847 3C1.33046 2.08788 2.08788 1.33046 3 0.803847C4.3923 0 6.26154 0 10 0H18C21.7385 0 23.6077 0 25 0.803847C25.9121 1.33046 26.6695 2.08788 27.1962 3C28 4.3923 28 6.26154 28 10V10C28 13.7385 28 15.6077 27.1962 17C26.6695 17.9121 25.9121 18.6695 25 19.1962C23.6077 20 21.7385 20 18 20H10C6.26154 20 4.3923 20 3 19.1962C2.08788 18.6695 1.33046 17.9121 0.803847 17C0 15.6077 0 13.7385 0 10V10Z" fill="white"/>
<path fill-rule="evenodd" clip-rule="evenodd" d="M13.3623 11.9366V9.92266H14.3869C14.8068 9.92266 15.1612 9.77993 15.4501 9.49845L15.5194 9.42709C16.0471 8.84431 16.0124 7.93644 15.4501 7.39727C15.1689 7.11182 14.7837 6.95721 14.3869 6.96513H12.7422V11.9366H13.3623ZM13.3624 9.31213V7.57567H14.4026C14.626 7.57567 14.8379 7.66289 14.9959 7.82147C15.331 8.15449 15.3387 8.70952 15.0151 9.05443C14.8572 9.22491 14.6337 9.32006 14.4026 9.31213H13.3624ZM18.4122 8.80071C18.1464 8.55095 17.7843 8.42409 17.3259 8.42409C16.7366 8.42409 16.2936 8.6461 16.0009 9.08616L16.5479 9.439C16.7482 9.1377 17.0216 8.98705 17.3683 8.98705C17.5879 8.98705 17.7997 9.0703 17.9654 9.22095C18.1271 9.36367 18.2196 9.56983 18.2196 9.78788V9.93456C17.9808 9.79977 17.6803 9.72841 17.3105 9.72841C16.8791 9.72841 16.5325 9.83149 16.2744 10.0416C16.0163 10.2517 15.8853 10.5292 15.8853 10.8821C15.8776 11.2032 16.0125 11.5085 16.2513 11.7146C16.4939 11.9366 16.8021 12.0476 17.1642 12.0476C17.5917 12.0476 17.9307 11.8534 18.1888 11.4649H18.2157V11.9366H18.8089V9.83941C18.8089 9.39935 18.678 9.05048 18.4122 8.80071ZM16.729 11.3102C16.6019 11.2151 16.5248 11.0604 16.5248 10.8939C16.5248 10.7076 16.6096 10.553 16.7752 10.4301C16.9448 10.3072 17.1566 10.2438 17.4071 10.2438C17.7538 10.2398 18.0235 10.3191 18.2161 10.4777C18.2161 10.7473 18.1121 10.9812 17.9079 11.1794C17.723 11.3697 17.4725 11.4767 17.2106 11.4767C17.0372 11.4807 16.8677 11.4212 16.729 11.3102ZM20.1417 13.4313L22.214 8.5351H21.5399L20.5808 10.9772H20.5692L19.587 8.5351H18.9129L20.2726 11.7186L19.5023 13.4313H20.1417Z" fill="#3C4043"/>
<path d="M11.2217 9.48604C11.2217 9.29178 11.2063 9.09752 11.1755 8.90723H8.56006V10.0054H10.0584C9.99681 10.3582 9.79651 10.6754 9.50377 10.8736V11.5872H10.3974C10.9213 11.0917 11.2217 10.3582 11.2217 9.48604Z" fill="#4285F4"/>
<path d="M8.56026 12.2771C9.30752 12.2771 9.93923 12.0233 10.3976 11.5872L9.50397 10.8736C9.25359 11.0481 8.93389 11.1472 8.56026 11.1472C7.8361 11.1472 7.22365 10.6437 7.0041 9.96973H6.0835V10.7071C6.55343 11.6705 7.51254 12.2771 8.56026 12.2771Z" fill="#34A853"/>
<path d="M7.004 9.97022C6.88842 9.61737 6.88842 9.23282 7.004 8.87601V8.14258H6.08325C5.68644 8.94737 5.68644 9.89886 6.08325 10.7037L7.004 9.97022Z" fill="#FBBC04"/>
<path d="M8.56026 7.69842C8.957 7.69049 9.33834 7.8451 9.62338 8.12658L10.4169 7.30989C9.91227 6.82622 9.24974 6.5606 8.56026 6.56853C7.51254 6.56853 6.55343 7.17907 6.0835 8.14244L7.0041 8.87984C7.22365 8.20191 7.8361 7.69842 8.56026 7.69842Z" fill="#EA4335"/>
</svg>
