<svg width="28" height="20" viewBox="0 0 28 20" fill="none" xmlns="http://www.w3.org/2000/svg">
<path d="M0 10C0 6.26154 0 4.3923 0.803847 3C1.33046 2.08788 2.08788 1.33046 3 0.803847C4.3923 0 6.26154 0 10 0H18C21.7385 0 23.6077 0 25 0.803847C25.9121 1.33046 26.6695 2.08788 27.1962 3C28 4.3923 28 6.26154 28 10V10C28 13.7385 28 15.6077 27.1962 17C26.6695 17.9121 25.9121 18.6695 25 19.1962C23.6077 20 21.7385 20 18 20H10C6.26154 20 4.3923 20 3 19.1962C2.08788 18.6695 1.33046 17.9121 0.803847 17C0 15.6077 0 13.7385 0 10V10Z" fill="white"/>
<path d="M7.70023 6.76261C7.71995 5.96657 8.42957 5.27946 9.22034 5.26782C10.01 5.26539 10.7997 5.26747 11.5893 5.26677C11.5872 7.93016 11.5936 10.5938 11.5861 13.2571C11.5557 14.0435 10.8538 14.7175 10.0716 14.7314C9.2805 14.7343 8.4893 14.7318 7.69815 14.7326V11.4079C8.46661 11.5895 9.27247 11.6668 10.0564 11.5463C10.5251 11.4709 11.0378 11.2408 11.1964 10.7546C11.3132 10.3388 11.2475 9.9011 11.2648 9.47427V8.48303H9.9081C9.902 9.13861 9.92058 9.79534 9.89828 10.4501C9.86171 10.8526 9.46313 11.1083 9.08354 11.0947C8.61279 11.0996 7.67992 10.7535 7.67992 10.7535C7.67758 9.5252 7.69358 7.98695 7.70023 6.76273V6.76261Z" fill="url(#paint0_linear_2635_500)"/>
<path d="M17.1984 10.1912C17.5408 10.1986 17.8852 10.1761 18.2263 10.2029C18.5717 10.2674 18.655 10.7903 18.3481 10.9615C18.1387 11.0744 17.89 11.0036 17.663 11.0235H17.1984V10.1912V10.1912ZM18.4243 9.24918C18.5004 9.51773 18.2415 9.75885 17.9829 9.72187H17.1984C17.2039 9.46861 17.1876 9.19373 17.2064 8.95381C17.5206 8.96266 17.8378 8.93576 18.1502 8.96788C18.2845 9.00161 18.3968 9.11197 18.4243 9.24918V9.24918ZM20.3123 5.26662C20.3269 5.77949 20.3144 6.31946 20.3186 6.84273C20.3176 8.97016 20.3206 11.0975 20.3169 13.2251C20.3032 14.0224 19.5966 14.7152 18.8048 14.7311C18.0122 14.7343 17.2195 14.7316 16.4269 14.7325V11.5162C17.2905 11.5118 18.1546 11.5253 19.0179 11.5095C19.4184 11.4844 19.857 11.2201 19.8757 10.7794C19.9228 10.3368 19.5055 10.0306 19.1093 9.98227C18.957 9.97832 18.9615 9.93788 19.1093 9.92023C19.4872 9.83856 19.784 9.44745 19.6728 9.05576C19.578 8.64379 19.1227 8.48434 18.744 8.48514C17.9717 8.47989 17.1993 8.4844 16.4271 8.48288C16.432 7.88245 16.4166 7.28137 16.4353 6.68138C16.4965 5.89847 17.2209 5.25282 18.0016 5.26683C18.7719 5.26671 19.5421 5.26671 20.3123 5.26668V5.26662Z" fill="url(#paint1_linear_2635_500)"/>
<path d="M12.0952 8.88299C12.0238 8.89814 12.0808 8.63973 12.0626 8.54171C12.0675 7.92191 12.0524 7.30143 12.0709 6.68207C12.1319 5.89584 12.8618 5.24858 13.6457 5.26698H15.954C15.9518 7.93037 15.9582 10.5941 15.9507 13.2573C15.9202 14.0437 15.2183 14.7177 14.4361 14.7316C13.645 14.7346 12.8538 14.7321 12.0626 14.7328V11.0902C12.6029 11.5336 13.3373 11.6026 14.0105 11.6038C14.518 11.6036 15.0226 11.5254 15.5154 11.4083V10.741C14.96 11.0178 14.3071 11.1936 13.6914 11.0346C13.2619 10.9277 12.9501 10.5126 12.9571 10.0694C12.9073 9.60844 13.1775 9.1218 13.6305 8.98477C14.1928 8.80871 14.8058 8.94336 15.333 9.17226C15.4459 9.2314 15.5605 9.30475 15.5154 9.11597V8.59144C14.6337 8.38167 13.6954 8.30448 12.8097 8.53268C12.5533 8.60501 12.3035 8.7147 12.0952 8.88305V8.88299Z" fill="url(#paint2_linear_2635_500)"/>
<defs>
<linearGradient id="paint0_linear_2635_500" x1="7.61536" y1="10.0903" x2="11.5255" y2="10.0903" gradientUnits="userSpaceOnUse">
<stop stop-color="#0F6EB6"/>
<stop offset="1" stop-color="#006DBA"/>
</linearGradient>
<linearGradient id="paint1_linear_2635_500" x1="16.4003" y1="9.79716" x2="20.2941" y2="9.79716" gradientUnits="userSpaceOnUse">
<stop stop-color="#58B03A"/>
<stop offset="1" stop-color="#55B330"/>
</linearGradient>
<linearGradient id="paint2_linear_2635_500" x1="12.0569" y1="9.88922" x2="15.9532" y2="9.88922" gradientUnits="userSpaceOnUse">
<stop stop-color="#DE0D3D"/>
<stop offset="1" stop-color="#E30138"/>
</linearGradient>
</defs>
</svg>
