<svg width="29" height="20" viewBox="0 0 29 20" fill="none" xmlns="http://www.w3.org/2000/svg">
<path d="M0.699951 10C0.699951 8.12157 0.70043 6.74617 0.798391 5.66532C0.895729 4.59135 1.08615 3.85737 1.43681 3.25C1.91954 2.41389 2.61385 1.71959 3.44995 1.23686C4.05732 0.886195 4.7913 0.695778 5.86527 0.59844C6.94612 0.500479 8.32152 0.5 10.2 0.5H18.2C20.0784 0.5 21.4538 0.500479 22.5346 0.59844C23.6086 0.695778 24.3426 0.886195 24.95 1.23686C25.7861 1.71959 26.4804 2.41389 26.9631 3.25C27.3138 3.85737 27.5042 4.59135 27.6015 5.66532C27.6995 6.74617 27.7 8.12157 27.7 10C27.7 11.8784 27.6995 13.2538 27.6015 14.3347C27.5042 15.4087 27.3138 16.1426 26.9631 16.75C26.4804 17.5861 25.7861 18.2804 24.95 18.7631C24.3426 19.1138 23.6086 19.3042 22.5346 19.4016C21.4538 19.4995 20.0784 19.5 18.2 19.5H10.2C8.32152 19.5 6.94612 19.4995 5.86527 19.4016C4.7913 19.3042 4.05732 19.1138 3.44995 18.7631C2.61385 18.2804 1.91954 17.5861 1.43681 16.75C1.08615 16.1426 0.895729 15.4087 0.798391 14.3347C0.70043 13.2538 0.699951 11.8784 0.699951 10Z" stroke="white" stroke-opacity="0.1"/>
<path d="M16.118 9.99993C16.118 13.0499 13.6739 15.5223 10.659 15.5223C7.64404 15.5223 5.19995 13.0499 5.19995 9.99993C5.19995 6.95 7.64404 4.47754 10.659 4.47754C13.6739 4.47754 16.118 6.95 16.118 9.99993Z" fill="#ED0006"/>
<path d="M23.2 9.99993C23.2 13.0499 20.7559 15.5223 17.741 15.5223C14.7261 15.5223 12.282 13.0499 12.282 9.99993C12.282 6.95 14.7261 4.47754 17.741 4.47754C20.7559 4.47754 23.2 6.95 23.2 9.99993Z" fill="#0099DF"/>
<path fill-rule="evenodd" clip-rule="evenodd" d="M14.2 14.2032C15.3737 13.1903 16.118 11.6831 16.118 10C16.118 8.31698 15.3737 6.80978 14.2 5.79688C13.0262 6.80978 12.282 8.31698 12.282 10C12.282 11.6831 13.0262 13.1903 14.2 14.2032Z" fill="#6C6BBD"/>
</svg>
