<svg width="29" height="20" viewBox="0 0 29 20" fill="none" xmlns="http://www.w3.org/2000/svg">
<path d="M0.699951 10C0.699951 8.12157 0.70043 6.74617 0.798391 5.66532C0.895729 4.59135 1.08615 3.85737 1.43681 3.25C1.91954 2.41389 2.61385 1.71959 3.44995 1.23686C4.05732 0.886195 4.7913 0.695778 5.86527 0.59844C6.94612 0.500479 8.32152 0.5 10.2 0.5H18.2C20.0784 0.5 21.4538 0.500479 22.5346 0.59844C23.6086 0.695778 24.3426 0.886195 24.95 1.23686C25.7861 1.71959 26.4804 2.41389 26.9631 3.25C27.3138 3.85737 27.5042 4.59135 27.6015 5.66532C27.6995 6.74617 27.7 8.12157 27.7 10C27.7 11.8784 27.6995 13.2538 27.6015 14.3347C27.5042 15.4087 27.3138 16.1426 26.9631 16.75C26.4804 17.5861 25.7861 18.2804 24.95 18.7631C24.3426 19.1138 23.6086 19.3042 22.5346 19.4016C21.4538 19.4995 20.0784 19.5 18.2 19.5H10.2C8.32152 19.5 6.94612 19.4995 5.86527 19.4016C4.7913 19.3042 4.05732 19.1138 3.44995 18.7631C2.61385 18.2804 1.91954 17.5861 1.43681 16.75C1.08615 16.1426 0.895729 15.4087 0.798391 14.3347C0.70043 13.2538 0.699951 11.8784 0.699951 10Z" fill="#0F0F0F" stroke="white" stroke-opacity="0.1"/>
<path fill-rule="evenodd" clip-rule="evenodd" d="M14.1999 14.1996C13.2248 15.0215 11.9599 15.5177 10.5777 15.5177C7.49374 15.5177 4.99365 13.0474 4.99365 10.0001C4.99365 6.95276 7.49374 4.48242 10.5777 4.48242C11.9599 4.48242 13.2248 4.9786 14.1999 5.80052C15.175 4.9786 16.4398 4.48242 17.822 4.48242C20.906 4.48242 23.4061 6.95276 23.4061 10.0001C23.4061 13.0474 20.906 15.5177 17.822 15.5177C16.4398 15.5177 15.175 15.0215 14.1999 14.1996Z" fill="#ED0006"/>
<path fill-rule="evenodd" clip-rule="evenodd" d="M14.2 14.1996C15.4006 13.1876 16.1619 11.6817 16.1619 10.0001C16.1619 8.31846 15.4006 6.81255 14.2 5.80051C15.1751 4.9786 16.4399 4.48242 17.8221 4.48242C20.9061 4.48242 23.4062 6.95276 23.4062 10.0001C23.4062 13.0474 20.9061 15.5177 17.8221 15.5177C16.4399 15.5177 15.1751 15.0215 14.2 14.1996Z" fill="#F9A000"/>
<path fill-rule="evenodd" clip-rule="evenodd" d="M14.2 14.1999C15.4006 13.1878 16.162 11.6819 16.162 10.0003C16.162 8.31872 15.4006 6.81282 14.2 5.80078C12.9994 6.81282 12.238 8.31872 12.238 10.0003C12.238 11.6819 12.9994 13.1878 14.2 14.1999Z" fill="#FF5E00"/>
</svg>
