<svg width="28" height="20" viewBox="0 0 28 20" fill="none" xmlns="http://www.w3.org/2000/svg">
<path d="M0 10C0 6.26154 0 4.3923 0.803847 3C1.33046 2.08788 2.08788 1.33046 3 0.803847C4.3923 0 6.26154 0 10 0H18C21.7385 0 23.6077 0 25 0.803847C25.9121 1.33046 26.6695 2.08788 27.1962 3C28 4.3923 28 6.26154 28 10V10C28 13.7385 28 15.6077 27.1962 17C26.6695 17.9121 25.9121 18.6695 25 19.1962C23.6077 20 21.7385 20 18 20H10C6.26154 20 4.3923 20 3 19.1962C2.08788 18.6695 1.33046 17.9121 0.803847 17C0 15.6077 0 13.7385 0 10V10Z" fill="white"/>
<path fill-rule="evenodd" clip-rule="evenodd" d="M8.9335 12.2529H7.89642C7.82546 12.2529 7.7651 12.3045 7.75403 12.3745L7.33458 15.0339C7.32625 15.0864 7.36689 15.1337 7.42011 15.1337H7.91522C7.98619 15.1337 8.04655 15.0821 8.05762 15.012L8.17075 14.2947C8.18166 14.2244 8.24217 14.1729 8.31299 14.1729H8.64129C9.32445 14.1729 9.7187 13.8423 9.82171 13.1872C9.8681 12.9007 9.82368 12.6755 9.68943 12.5177C9.54206 12.3446 9.28059 12.2529 8.9335 12.2529ZM9.05315 13.2242C8.99645 13.5964 8.71211 13.5964 8.43718 13.5964H8.28068L8.39047 12.9014C8.39699 12.8594 8.43339 12.8284 8.47585 12.8284H8.54758C8.73485 12.8284 8.91154 12.8284 9.00283 12.9352C9.05722 12.9989 9.07392 13.0935 9.05315 13.2242ZM12.0336 13.2123H11.5369C11.4946 13.2123 11.4581 13.2432 11.4515 13.2853L11.4296 13.4242L11.3948 13.3738C11.2873 13.2178 11.0476 13.1656 10.8083 13.1656C10.2595 13.1656 9.79077 13.5813 9.69947 14.1644C9.65203 14.4552 9.71947 14.7333 9.88445 14.9273C10.0358 15.1056 10.2524 15.1799 10.51 15.1799C10.9522 15.1799 11.1974 14.8955 11.1974 14.8955L11.1753 15.0336C11.1669 15.0863 11.2075 15.1336 11.2605 15.1336H11.7078C11.779 15.1336 11.839 15.0821 11.8502 15.0119L12.1186 13.3121C12.1271 13.2598 12.0866 13.2123 12.0336 13.2123ZM11.3413 14.1789C11.2934 14.4626 11.0682 14.6531 10.781 14.6531C10.6368 14.6531 10.5215 14.6068 10.4475 14.5192C10.3741 14.4322 10.3462 14.3082 10.3696 14.1703C10.4143 13.8889 10.6433 13.6923 10.9261 13.6923C11.0671 13.6923 11.1818 13.7391 11.2573 13.8275C11.3329 13.9169 11.363 14.0415 11.3413 14.1789ZM14.1795 13.2122H14.6786C14.7485 13.2122 14.7892 13.2906 14.7495 13.348L13.0897 15.7439C13.0628 15.7827 13.0185 15.8058 12.9712 15.8058H12.4727C12.4026 15.8058 12.3616 15.7268 12.4022 15.6693L12.9191 14.9397L12.3694 13.3265C12.3504 13.2705 12.3918 13.2122 12.4514 13.2122H12.9418C13.0055 13.2122 13.0617 13.2541 13.0801 13.315L13.3718 14.2894L14.0602 13.2755C14.0871 13.2359 14.1319 13.2122 14.1795 13.2122Z" fill="#253B80"/>
<path fill-rule="evenodd" clip-rule="evenodd" d="M19.5906 15.0341L20.0162 12.3261C20.0227 12.284 20.0592 12.2531 20.1015 12.2529H20.5806C20.6335 12.2529 20.6742 12.3004 20.6658 12.3529L20.2461 15.0121C20.2352 15.0823 20.1748 15.1338 20.1037 15.1338H19.6758C19.6229 15.1338 19.5822 15.0866 19.5906 15.0341ZM16.331 12.2531H15.2937C15.2229 12.2531 15.1626 12.3046 15.1515 12.3747L14.732 15.0341C14.7237 15.0866 14.7643 15.1338 14.8173 15.1338H15.3495C15.399 15.1338 15.4413 15.0978 15.449 15.0487L15.5681 14.2948C15.579 14.2246 15.6395 14.1731 15.7103 14.1731H16.0384C16.7217 14.1731 17.1159 13.8425 17.219 13.1874C17.2655 12.9008 17.2208 12.6756 17.0867 12.5178C16.9394 12.3447 16.6781 12.2531 16.331 12.2531ZM16.4506 13.2244C16.3941 13.5965 16.1097 13.5965 15.8346 13.5965H15.6783L15.7883 12.9015C15.7948 12.8595 15.8309 12.8286 15.8735 12.8286H15.9452C16.1323 12.8286 16.3092 12.8286 16.4004 12.9353C16.4549 12.999 16.4714 13.0936 16.4506 13.2244ZM19.4308 13.2124H18.9345C18.8918 13.2124 18.8556 13.2434 18.8493 13.2854L18.8273 13.4243L18.7924 13.374C18.6849 13.2179 18.4453 13.1658 18.206 13.1658C17.6572 13.1658 17.1886 13.5814 17.0973 14.1645C17.05 14.4553 17.1172 14.7334 17.2822 14.9274C17.4338 15.1057 17.6501 15.18 17.9077 15.18C18.3499 15.18 18.5951 14.8957 18.5951 14.8957L18.573 15.0337C18.5646 15.0865 18.6053 15.1338 18.6585 15.1338H19.1057C19.1765 15.1338 19.2368 15.0822 19.2479 15.012L19.5165 13.3122C19.5247 13.26 19.4841 13.2124 19.4308 13.2124ZM18.7386 14.179C18.6909 14.4628 18.4655 14.6532 18.1782 14.6532C18.0343 14.6532 17.9188 14.607 17.8448 14.5193C17.7714 14.4323 17.7438 14.3084 17.7669 14.1704C17.8118 13.8891 18.0405 13.6924 18.3234 13.6924C18.4644 13.6924 18.579 13.7392 18.6546 13.8277C18.7305 13.917 18.7606 14.0416 18.7386 14.179Z" fill="#179BD7"/>
<path d="M12.7714 11.301L12.8989 10.4912L12.6149 10.4846H11.2588L12.2012 4.50869C12.2041 4.49065 12.2137 4.47383 12.2276 4.46189C12.2415 4.44994 12.2593 4.44336 12.2778 4.44336H14.5645C15.3236 4.44336 15.8475 4.60133 16.121 4.91313C16.2493 5.0594 16.3309 5.21225 16.3704 5.38046C16.4119 5.55697 16.4126 5.76784 16.3721 6.02503L16.3692 6.04381V6.2086L16.4975 6.28125C16.6055 6.33854 16.6912 6.40411 16.757 6.4792C16.8668 6.60426 16.9377 6.76321 16.9677 6.95165C16.9987 7.14546 16.9884 7.37608 16.9377 7.63718C16.8792 7.93752 16.7846 8.1991 16.6569 8.41314C16.5394 8.61037 16.3897 8.77391 16.212 8.90072C16.0423 9.02114 15.8407 9.11258 15.6128 9.1711C15.3919 9.22858 15.1401 9.25763 14.8638 9.25763H14.6859C14.5587 9.25763 14.435 9.30346 14.338 9.38563C14.2408 9.46949 14.1763 9.58402 14.1566 9.70935L14.1432 9.78226L13.918 11.2096L13.9077 11.262C13.905 11.2786 13.9004 11.2869 13.8936 11.2925C13.8875 11.2976 13.8787 11.301 13.8702 11.301H12.7714Z" fill="#253B80"/>
<path d="M16.6189 6.06348C16.6121 6.10711 16.6043 6.15172 16.5955 6.19755C16.2939 7.74583 15.2623 8.2807 13.9446 8.2807H13.2737C13.1126 8.2807 12.9768 8.39771 12.9517 8.55665L12.6082 10.7351L12.5109 11.3526C12.4946 11.457 12.575 11.5511 12.6803 11.5511H13.8703C14.0112 11.5511 14.1308 11.4487 14.153 11.3097L14.1647 11.2492L14.3888 9.82748L14.4032 9.74952C14.4251 9.61008 14.545 9.50769 14.6859 9.50769H14.8639C16.0167 9.50769 16.9193 9.03962 17.1831 7.68513C17.2932 7.1193 17.2362 6.64685 16.9446 6.31457C16.8564 6.21438 16.7469 6.13125 16.6189 6.06348Z" fill="#179BD7"/>
<path d="M16.3035 5.93734C16.2574 5.92393 16.2098 5.91174 16.1611 5.90077C16.1121 5.89005 16.0618 5.88054 16.0102 5.87225C15.8293 5.843 15.6311 5.8291 15.4188 5.8291H13.6265C13.5823 5.8291 13.5404 5.83909 13.5029 5.85714C13.4202 5.89687 13.3588 5.97513 13.3439 6.07093L12.9626 8.48587L12.9517 8.55631C12.9768 8.39737 13.1126 8.28035 13.2737 8.28035H13.9446C15.2623 8.28035 16.294 7.74525 16.5955 6.19721C16.6045 6.15138 16.6121 6.10677 16.6189 6.06314C16.5426 6.02267 16.4599 5.98805 16.371 5.95855C16.3491 5.95124 16.3264 5.94417 16.3035 5.93734Z" fill="#222D65"/>
<path d="M13.3437 6.07123C13.3586 5.97542 13.4201 5.89717 13.5027 5.85767C13.5405 5.83963 13.5822 5.82964 13.6262 5.82964H15.4186C15.6309 5.82964 15.8291 5.84353 16.01 5.87279C16.0617 5.88108 16.1119 5.89059 16.1609 5.90131C16.2097 5.91228 16.2572 5.92447 16.3033 5.93788C16.3262 5.94471 16.3488 5.95177 16.371 5.95885C16.46 5.98834 16.5427 6.0232 16.6189 6.06343C16.7087 5.49127 16.6182 5.1017 16.3089 4.74894C15.9679 4.3606 15.3523 4.19434 14.5646 4.19434H12.2779C12.117 4.19434 11.9798 4.31135 11.9549 4.47054L11.0024 10.5079C10.9836 10.6273 11.0758 10.7351 11.1962 10.7351H12.608L12.9624 8.48616L13.3437 6.07123Z" fill="#253B80"/>
</svg>
