<svg width="28" height="24" viewBox="0 0 28 24" fill="none" xmlns="http://www.w3.org/2000/svg">
<path d="M0 12C0 8.26154 0 6.3923 0.803847 5C1.33046 4.08788 2.08788 3.33046 3 2.80385C4.3923 2 6.26154 2 10 2H18C21.7385 2 23.6077 2 25 2.80385C25.9121 3.33046 26.6695 4.08788 27.1962 5C28 6.3923 28 8.26154 28 12V12C28 15.7385 28 17.6077 27.1962 19C26.6695 19.9121 25.9121 20.6695 25 21.1962C23.6077 22 21.7385 22 18 22H10C6.26154 22 4.3923 22 3 21.1962C2.08788 20.6695 1.33046 19.9121 0.803847 19C0 17.6077 0 15.7385 0 12V12Z" fill="white"/>
<path fill-rule="evenodd" clip-rule="evenodd" d="M14.76 14.6396L15.675 8.50957C15.737 8.14057 15.704 7.59957 15.084 7.55957H14.157L13.097 14.6396H14.76ZM12.53 14.6396L13.22 10.0096H11.572L11.117 13.0686H10.014C9.791 13.0686 9.601 12.9236 9.646 12.6486L9.898 10.9686C9.95 10.6256 9.979 10.0126 9.413 10.0096H8.368L7.91 13.0726C7.77 14.0966 8.308 14.6396 8.986 14.6396H12.53ZM4.1 13.0646H5.409C5.729 13.0646 6.029 12.7996 6.071 12.4786L6.13 12.0896C6.202 11.6996 5.947 11.4616 5.626 11.4616H4.34L4.1 13.0646ZM3.864 14.6396L3.596 16.4396C3.578 16.4326 2 16.4396 2 16.4396L2.96 10.0096H6.05C7.101 10.0096 7.841 10.8586 7.702 11.9106L7.582 12.7166C7.442 13.7686 6.459 14.6396 5.407 14.6396H3.864Z" fill="#231F20"/>
<path d="M24.4199 11.6578L24.4449 11.4758C24.4512 11.4415 24.4497 11.4062 24.4406 11.3725C24.4315 11.3389 24.415 11.3077 24.3922 11.2812C24.3695 11.2548 24.3412 11.2337 24.3093 11.2196C24.2774 11.2055 24.2427 11.1987 24.2079 11.1998H22.9299C22.8537 11.2024 22.7808 11.2314 22.7236 11.2817C22.6664 11.332 22.6283 11.4006 22.6159 11.4758L22.5909 11.6578H24.4199ZM21.7399 14.6398C21.1099 14.6398 20.6249 14.1278 20.7099 13.4978L21.0559 11.1838C21.1409 10.5538 21.7399 10.0098 22.3699 10.0098H24.9889C25.6269 10.0098 26.0739 10.5528 25.9889 11.1838L25.7549 12.7478H22.4299L22.3619 13.2068H25.0659C25.4849 13.2028 25.6239 13.5868 25.5699 13.9928L25.4729 14.6398H21.7399Z" fill="#231F20"/>
<path d="M4.19482 16.4398L4.36482 15.2568H25.3828L25.2838 15.9468C25.2308 16.2818 25.0588 16.4388 24.7888 16.4388L4.19482 16.4398Z" fill="#EE7623"/>
<path d="M17.0318 10.0098C16.4398 10.0098 15.9568 10.5318 15.8618 11.1598L15.7768 11.7368C15.6968 12.3458 16.0248 12.8568 16.5878 12.8878L16.6418 12.8898H18.6718L18.6218 13.2088H16.3328C15.9228 13.2098 15.5218 13.2508 15.4698 13.6648L15.3198 14.6398H19.0018C19.6088 14.6398 20.1738 14.2368 20.2568 13.6098L20.3768 12.8178C20.4588 12.1898 20.0268 11.6658 19.4198 11.6658H17.3078L17.3468 11.3668H19.7588C20.3668 11.3668 20.5558 11.2928 20.6388 10.8408L20.7628 10.0098H17.0318Z" fill="#231F20"/>
</svg>
