<svg width="28" height="20" viewBox="0 0 28 20" fill="none" xmlns="http://www.w3.org/2000/svg">
<path d="M0 10C0 6.26154 0 4.3923 0.803847 3C1.33046 2.08788 2.08788 1.33046 3 0.803847C4.3923 0 6.26154 0 10 0H18C21.7385 0 23.6077 0 25 0.803847C25.9121 1.33046 26.6695 2.08788 27.1962 3C28 4.3923 28 6.26154 28 10V10C28 13.7385 28 15.6077 27.1962 17C26.6695 17.9121 25.9121 18.6695 25 19.1962C23.6077 20 21.7385 20 18 20H10C6.26154 20 4.3923 20 3 19.1962C2.08788 18.6695 1.33046 17.9121 0.803847 17C0 15.6077 0 13.7385 0 10V10Z" fill="white"/>
<path d="M9.5832 5.39355H13.2079C13.7138 5.39355 14.0285 5.81194 13.9105 6.32694L12.223 13.6772C12.1039 14.1904 11.5973 14.6091 11.0909 14.6091H7.46665C6.96139 14.6091 6.64599 14.1904 6.76402 13.6772L8.45226 6.32694C8.57029 5.81194 9.07662 5.39355 9.5832 5.39355Z" fill="#E21836"/>
<path d="M12.9062 5.3916H17.0745C17.5804 5.3916 17.3522 5.80999 17.2332 6.32499L15.546 13.6752C15.4276 14.1885 15.4645 14.6072 14.9576 14.6072H10.7893C10.2824 14.6072 9.96865 14.1885 10.0877 13.6752L11.7749 6.32499C11.8947 5.80999 12.4 5.3916 12.9062 5.3916Z" fill="#00447C"/>
<path d="M16.909 5.3916H20.5336C21.0403 5.3916 21.355 5.80999 21.236 6.32499L19.5487 13.6752C19.4296 14.1885 18.9227 14.6072 18.4161 14.6072H14.7931C14.2862 14.6072 13.9718 14.1885 14.0905 13.6752L15.778 6.32499C15.8961 5.80999 16.402 5.3916 16.909 5.3916Z" fill="#007B84"/>
<path d="M10.5296 7.74735C10.1568 7.75121 10.0467 7.74735 10.0116 7.73893C9.99806 7.80409 9.74654 8.98118 9.74583 8.98216C9.69167 9.22031 9.65227 9.39006 9.51842 9.49968C9.44244 9.5634 9.35374 9.59415 9.2509 9.59415C9.08561 9.59415 8.98931 9.51088 8.97314 9.35296L8.97005 9.29873C8.97005 9.29873 9.0204 8.97974 9.0204 8.97795C9.0204 8.97795 9.28439 7.90528 9.33165 7.76349C9.33413 7.75542 9.33484 7.75121 9.33545 7.74735C8.82162 7.75192 8.73054 7.74735 8.72426 7.73893C8.72082 7.75049 8.70809 7.81699 8.70809 7.81699L8.43855 9.02599L8.4154 9.12853L8.37061 9.46392C8.37061 9.5634 8.38987 9.64461 8.42821 9.71326C8.55101 9.93097 8.90131 9.96359 9.09948 9.96359C9.3548 9.96359 9.59431 9.90856 9.75617 9.80809C10.0371 9.63968 10.1106 9.37644 10.1762 9.14251L10.2066 9.0225C10.2066 9.0225 10.4785 7.90842 10.5247 7.76349C10.5265 7.75542 10.5272 7.75121 10.5296 7.74735ZM11.4548 8.64609C11.3893 8.64609 11.2695 8.66223 11.1618 8.71573C11.1228 8.73608 11.0859 8.75956 11.0469 8.78296L11.0821 8.65416L11.0628 8.63247C10.8346 8.67934 10.7835 8.68562 10.5727 8.71573L10.5551 8.72765C10.5306 8.93353 10.5089 9.08832 10.4181 9.49299C10.3836 9.64213 10.3477 9.79271 10.3118 9.94149L10.3215 9.9604C10.5375 9.94884 10.603 9.94884 10.7908 9.95198L10.806 9.93522C10.8298 9.81126 10.8329 9.78222 10.8858 9.53117C10.9106 9.41215 10.9624 9.15061 10.9879 9.05749C11.0348 9.03544 11.0811 9.01375 11.1253 9.01375C11.2305 9.01375 11.2177 9.10687 11.2136 9.14398C11.2091 9.20627 11.1708 9.40973 11.1315 9.58441L11.1052 9.69716C11.0869 9.78043 11.0669 9.86136 11.0486 9.94391L11.0565 9.9604C11.2695 9.94884 11.3344 9.94884 11.5162 9.95198L11.5376 9.93522C11.5705 9.74162 11.5801 9.68981 11.6384 9.40793L11.6677 9.27842C11.7247 9.02495 11.7533 8.89642 11.7102 8.79174C11.6646 8.67442 11.5553 8.64609 11.4548 8.64609ZM12.4884 8.91147C12.3752 8.93352 12.3031 8.94822 12.2313 8.95772C12.1602 8.96928 12.0908 8.97977 11.9815 8.99519L11.9728 9.00316L11.9649 9.00953C11.9535 9.09216 11.9455 9.1636 11.9304 9.24758C11.9176 9.33443 11.8979 9.43311 11.8658 9.5749C11.841 9.68344 11.8282 9.72127 11.814 9.75945C11.8003 9.79763 11.7851 9.83473 11.7572 9.94148L11.7637 9.95134L11.7692 9.96039C11.8714 9.95546 11.9383 9.95197 12.007 9.95134C12.0756 9.94883 12.1468 9.95134 12.2568 9.95197L12.2665 9.94399L12.2768 9.93521C12.2927 9.83895 12.2951 9.81305 12.3048 9.76608C12.3145 9.71571 12.3311 9.64598 12.3718 9.45973C12.391 9.37225 12.4125 9.28504 12.4325 9.19577C12.4532 9.10686 12.475 9.0193 12.4957 8.93182L12.4926 8.92124L12.4884 8.91147ZM12.4908 8.55366C12.388 8.49208 12.2075 8.51162 12.086 8.59668C11.9649 8.68003 11.9511 8.79834 12.0536 8.86073C12.1547 8.9206 12.3359 8.90276 12.4563 8.81699C12.5771 8.73184 12.5922 8.61461 12.4908 8.55366ZM13.1127 9.97969C13.3208 9.97969 13.5341 9.92152 13.6946 9.7489C13.8181 9.6089 13.8747 9.4006 13.8944 9.31483C13.9582 9.03053 13.9085 8.89779 13.846 8.81694C13.7511 8.6937 13.5835 8.65418 13.4095 8.65418C13.3049 8.65418 13.0558 8.66466 12.8611 8.8467C12.7214 8.978 12.6568 9.15619 12.6178 9.32702C12.5785 9.50108 12.5333 9.81442 12.8173 9.93102C12.905 9.9692 13.0313 9.97969 13.1127 9.97969ZM13.0965 9.34001C13.1445 9.12473 13.2011 8.94404 13.3456 8.94404C13.4589 8.94404 13.4671 9.07848 13.4168 9.29448C13.4077 9.34243 13.3664 9.5207 13.3105 9.59662C13.2714 9.65264 13.2252 9.68661 13.1741 9.68661C13.159 9.68661 13.0686 9.68661 13.0672 9.55046C13.0665 9.48324 13.08 9.41458 13.0965 9.34001ZM14.4145 9.952L14.4307 9.93524C14.4538 9.81129 14.4576 9.78216 14.5086 9.5312C14.5342 9.41217 14.587 9.15064 14.6118 9.05751C14.6588 9.03538 14.7043 9.01369 14.7499 9.01369C14.8544 9.01369 14.8417 9.10681 14.8376 9.14392C14.8338 9.2063 14.7954 9.40966 14.7554 9.58435L14.7306 9.6971C14.7116 9.78046 14.6909 9.8613 14.6726 9.94394L14.6806 9.96043C14.8942 9.94887 14.9567 9.94887 15.1395 9.952L15.1616 9.93524C15.1937 9.74156 15.2024 9.68975 15.2624 9.40796L15.2911 9.27836C15.3483 9.02489 15.3773 8.89645 15.3349 8.79177C15.288 8.67444 15.1779 8.64612 15.0788 8.64612C15.0132 8.64612 14.8928 8.66216 14.7858 8.71576C14.7475 8.73611 14.7092 8.7595 14.6716 8.78298L14.7043 8.65419L14.6868 8.63241C14.4586 8.67937 14.4065 8.68565 14.196 8.71576L14.1798 8.72768C14.1543 8.93356 14.1335 9.08826 14.0428 9.49302C14.0082 9.64216 13.9724 9.79274 13.9365 9.94152L13.9461 9.96043C14.1625 9.94887 14.2271 9.94887 14.4145 9.952ZM15.984 9.96039C15.9974 9.89388 16.0772 9.4997 16.0779 9.4997C16.0779 9.4997 16.1459 9.21046 16.15 9.19998C16.15 9.19998 16.1714 9.16986 16.1928 9.15794H16.2242C16.521 9.15794 16.8561 9.15794 17.1188 8.96193C17.2975 8.82748 17.4197 8.62896 17.4742 8.38768C17.4883 8.32852 17.4987 8.25816 17.4987 8.1878C17.4987 8.0954 17.4804 8.00398 17.4276 7.93254C17.2937 7.74244 17.027 7.73895 16.7191 7.73751C16.7181 7.73751 16.5673 7.73895 16.5673 7.73895C16.1732 7.74388 16.0151 7.74244 15.9502 7.73438C15.9447 7.7635 15.9344 7.81531 15.9344 7.81531C15.9344 7.81531 15.7932 8.4791 15.7932 8.48017C15.7932 8.48017 15.4553 9.89146 15.4394 9.95796C15.7835 9.95375 15.9246 9.95375 15.984 9.96039ZM16.2456 8.78123C16.2456 8.78123 16.3957 8.11879 16.395 8.1213L16.3999 8.08733L16.402 8.06143L16.462 8.0677C16.462 8.0677 16.7715 8.09468 16.7788 8.0954C16.901 8.14335 16.9513 8.26695 16.9162 8.42828C16.8841 8.57572 16.7898 8.69967 16.6687 8.75954C16.569 8.81027 16.4468 8.81449 16.3209 8.81449H16.2394L16.2456 8.78123ZM17.1802 9.35228C17.1405 9.52383 17.0949 9.83717 17.3776 9.94885C17.4677 9.98775 17.5484 9.99931 17.6305 9.9951C17.7172 9.99035 17.7975 9.94625 17.8719 9.88279C17.8652 9.90888 17.8584 9.93496 17.8517 9.96113L17.8645 9.97789C18.0678 9.9692 18.1309 9.9692 18.3512 9.9709L18.3711 9.95548C18.4033 9.76368 18.4336 9.57743 18.5172 9.21049C18.5579 9.03473 18.5985 8.86067 18.6403 8.68563L18.6338 8.66636C18.4064 8.70911 18.3456 8.71825 18.1268 8.74971L18.1102 8.76343C18.108 8.78126 18.1057 8.79838 18.1036 8.8155C18.0696 8.75975 18.0203 8.71216 17.9442 8.68249C17.847 8.64368 17.6185 8.69369 17.4221 8.8751C17.2841 9.00462 17.2178 9.18208 17.1802 9.35228ZM17.6578 9.36277C17.7065 9.15134 17.7624 8.97244 17.9073 8.97244C17.9989 8.97244 18.0471 9.05821 18.0373 9.20449C18.0296 9.24097 18.0212 9.27942 18.0112 9.32289C17.9967 9.38571 17.981 9.44801 17.9657 9.51039C17.9501 9.55305 17.932 9.59329 17.9122 9.62009C17.8749 9.67369 17.7862 9.70694 17.7351 9.70694C17.7206 9.70694 17.6312 9.70694 17.6281 9.57322C17.6274 9.50662 17.6409 9.43806 17.6578 9.36277ZM20.1519 8.66465L20.1343 8.6443C19.9093 8.69055 19.8686 8.6979 19.6618 8.72622L19.6466 8.74164C19.6459 8.74415 19.6453 8.748 19.6443 8.7515L19.6436 8.748C19.4897 9.10822 19.4942 9.03051 19.3689 9.31409C19.3682 9.30119 19.3682 9.29312 19.3675 9.27941L19.3361 8.66465L19.3164 8.6443C19.0807 8.69055 19.0751 8.6979 18.8574 8.72622L18.8405 8.74164C18.8381 8.74899 18.8381 8.75705 18.8367 8.76584L18.8381 8.76897C18.8653 8.91005 18.8588 8.87859 18.8861 9.10123C18.8988 9.21048 18.9157 9.32037 18.9285 9.42828C18.9499 9.60888 18.9619 9.69779 18.9882 9.9734C18.8412 10.2195 18.8064 10.3126 18.6648 10.5286L18.6658 10.5308L18.5661 10.6907C18.5548 10.7075 18.5444 10.7191 18.5299 10.724C18.514 10.732 18.4934 10.7334 18.4646 10.7334H18.4094L18.3273 11.0104L18.6089 11.0153C18.7742 11.0146 18.8781 10.9362 18.934 10.8308L19.1111 10.523H19.1083L19.1269 10.5013C19.246 10.2412 20.1519 8.66465 20.1519 8.66465ZM17.1802 12.302H17.0607L17.5028 10.8185H17.6495L17.696 10.6657L17.7006 10.8357C17.6951 10.9407 17.7765 11.0338 17.9905 11.0184H18.238L18.3231 10.7328H18.23C18.1765 10.7328 18.1517 10.7191 18.1547 10.6897L18.1502 10.5168H17.692V10.5177C17.5438 10.5208 17.1014 10.5321 17.0118 10.5563C16.9034 10.5846 16.7892 10.668 16.7892 10.668L16.834 10.515H16.4054L16.316 10.8185L15.868 12.3247H15.7811L15.6958 12.6082H16.5496L16.521 12.7028H16.9417L16.9696 12.6082H17.0877L17.1802 12.302ZM16.8299 11.12C16.7612 11.1392 16.6335 11.1977 16.6335 11.1977L16.7471 10.8185H17.0877L17.0055 11.0948C17.0055 11.0948 16.9003 11.1011 16.8299 11.12ZM16.8364 11.6616C16.8364 11.6616 16.7294 11.6752 16.659 11.6914C16.5897 11.7127 16.4596 11.7799 16.4596 11.7799L16.5769 11.3854H16.9193L16.8364 11.6616ZM16.6456 12.3055H16.3039L16.403 11.9725H16.7436L16.6456 12.3055ZM17.4683 11.3854H17.9608L17.89 11.6179H17.391L17.3161 11.872H17.7527L17.4221 12.3443C17.399 12.379 17.3782 12.3913 17.3552 12.401C17.332 12.4129 17.3016 12.4269 17.2665 12.4269H17.1453L17.0621 12.7053H17.3789C17.5436 12.7053 17.6409 12.6293 17.7127 12.5296L17.9394 12.2148L17.9881 12.5344C17.9984 12.5943 18.0408 12.6293 18.0695 12.6429C18.1013 12.6591 18.134 12.6868 18.1803 12.6909C18.23 12.693 18.2659 12.6947 18.2897 12.6947H18.4454L18.5388 12.3832H18.4774C18.4422 12.3832 18.3815 12.3772 18.3712 12.366C18.3608 12.3524 18.3608 12.3314 18.3553 12.2995L18.3059 11.9791H18.1036L18.1923 11.872H18.6904L18.767 11.6179H18.3059L18.3777 11.3854H18.8374L18.9226 11.0986H17.5522L17.4683 11.3854ZM13.3091 12.3702L13.424 11.9823H13.8964L13.9827 11.6938H13.5099L13.5821 11.455H14.0441L14.1297 11.1757H12.9736L12.8898 11.455H13.1524L13.0824 11.6938H12.819L12.7317 11.9872H12.9943L12.8411 12.5005C12.8204 12.5684 12.8508 12.5943 12.8701 12.6258C12.8898 12.6566 12.9097 12.6769 12.9546 12.6885C13.0009 12.699 13.0326 12.7053 13.0757 12.7053H13.6083L13.7032 12.3856L13.4671 12.4185C13.4215 12.4185 13.2953 12.413 13.3091 12.3702ZM13.3633 10.5132L13.2435 10.7327C13.2179 10.7807 13.1949 10.8104 13.1741 10.8242C13.1558 10.8357 13.1196 10.8406 13.0671 10.8406H13.0047L12.9212 11.1214H13.1286C13.2283 11.1214 13.3049 11.0843 13.3415 11.0657C13.3808 11.0444 13.3912 11.0566 13.4216 11.0268L13.4916 10.9652H14.1394L14.2254 10.6729H13.7512L13.834 10.5132H13.3633ZM14.3196 12.3759C14.3085 12.3597 14.3165 12.3313 14.3334 12.2722L14.5104 11.6777H15.1402C15.232 11.6763 15.2983 11.6752 15.3414 11.6721C15.3877 11.6672 15.4381 11.6504 15.4929 11.6203C15.5496 11.5887 15.5785 11.5555 15.603 11.5173C15.6303 11.4792 15.6741 11.3959 15.7118 11.2673L15.9343 10.515L15.2807 10.5189C15.2807 10.5189 15.0795 10.549 14.9908 10.5822C14.9014 10.6193 14.7737 10.7229 14.7737 10.7229L14.8327 10.5167H14.4289L13.8637 12.4185C13.8436 12.4924 13.8302 12.546 13.8271 12.5782C13.8261 12.6128 13.8702 12.6472 13.8989 12.6731C13.9327 12.699 13.9827 12.6948 14.0307 12.699C14.0811 12.7028 14.1529 12.7052 14.2519 12.7052H14.5622L14.6574 12.379L14.3796 12.4056C14.35 12.4056 14.3285 12.3895 14.3196 12.3759ZM14.6246 11.2761H15.2862L15.2441 11.4098C15.2382 11.413 15.2241 11.4032 15.1568 11.4113H14.5839L14.6246 11.2761ZM14.7572 10.8276H15.4243L15.3763 10.9887C15.3763 10.9887 15.0619 10.9855 15.0115 10.995C14.7899 11.0339 14.6605 11.154 14.6605 11.154L14.7572 10.8276ZM15.2589 11.8577C15.2535 11.8776 15.2448 11.8898 15.2327 11.899C15.2193 11.9078 15.1975 11.9109 15.1651 11.9109H15.0708L15.0764 11.748H14.6843L14.6684 12.5442C14.6678 12.6017 14.6733 12.6349 14.7147 12.6615C14.7562 12.6948 14.8838 12.699 15.0557 12.699H15.3013L15.39 12.401L15.1762 12.4129L15.105 12.4171C15.0953 12.4129 15.086 12.4091 15.0757 12.3986C15.0667 12.3895 15.0515 12.3951 15.054 12.3376L15.0557 12.1335L15.28 12.1241C15.4011 12.1241 15.4529 12.0841 15.497 12.0461C15.5392 12.0096 15.553 11.9676 15.5689 11.9109L15.6065 11.7302H15.2983L15.2589 11.8577Z" fill="#FEFEFE"/>
</svg>
