<svg width="464" height="68" viewBox="0 0 464 68" fill="none" xmlns="http://www.w3.org/2000/svg">
<g clip-path="url(#clip0_1_28)">
<rect width="463.7" height="67.7" fill="white"/>
<path d="M0.419075 67.7566C0.219075 67.7566 0.119076 67.6566 0.0190756 67.5566C-0.0809244 67.3566 -0.0809244 67.2566 0.0190756 67.1566L36.0191 0.256577C36.0191 0.156577 36.1191 0.0565643 36.3191 0.0565643H45.9191C46.0191 0.0565643 46.2191 0.156577 46.3191 0.256577L82.1191 67.1566C82.2191 67.2566 82.2191 67.3566 82.1191 67.5566C82.0191 67.6566 81.9191 67.7566 81.7191 67.7566H67.4191C67.2191 67.7566 67.1191 67.6566 67.0191 67.5566L41.4191 19.8566C41.3191 19.6566 41.2191 19.6566 41.0191 19.6566C40.9191 19.6566 40.7191 19.7566 40.6191 19.8566L15.2191 67.5566C15.1191 67.6566 15.0191 67.7566 14.8191 67.7566H0.419075Z" fill="black"/>
<path d="M83.9372 0.756577C83.7372 0.356577 83.8372 0.15657 84.3372 0.15657H98.8372C98.9372 0.15657 99.1372 0.256567 99.2372 0.356567L124.837 47.9566C124.937 48.1566 125.037 48.1566 125.237 48.1566C125.437 48.1566 125.537 48.0566 125.637 47.9566L151.237 0.356567C151.237 0.156567 151.437 0.15657 151.637 0.15657H165.937C166.337 0.15657 166.437 0.356577 166.337 0.756577L130.437 67.6566C130.337 67.7566 130.237 67.8566 130.037 67.8566H120.437C120.237 67.8566 120.237 67.7566 120.137 67.6566L83.9372 0.756577Z" fill="black"/>
<path d="M172.855 27.4566C172.855 27.1566 172.955 27.0566 173.255 27.0566H227.655C227.955 27.0566 228.155 27.1566 228.155 27.4566V40.3566C228.155 40.6566 227.955 40.7566 227.655 40.7566H186.655C186.455 40.7566 186.255 40.8566 186.255 41.1566V53.6566C186.255 53.8566 186.355 54.0566 186.655 54.0566H227.855C228.055 54.1566 228.155 54.2566 228.255 54.2566C228.355 54.2566 228.355 54.3566 228.355 54.5566V67.3566C228.355 67.6566 228.155 67.8566 227.855 67.8566H173.355C173.055 67.8566 172.855 67.6566 172.855 67.3566V27.4566ZM173.255 13.5566C172.955 13.5566 172.855 13.4566 172.855 13.1566V0.556564C172.955 0.256564 173.155 0.0565643 173.355 0.0565643H227.855C228.155 0.156564 228.355 0.356564 228.355 0.556564V13.1566C228.355 13.4566 228.155 13.6566 227.855 13.6566H173.255V13.5566Z" fill="black"/>
<path d="M240.174 0.356567C240.174 0.156567 240.274 -0.0434265 240.574 -0.0434265H254.874C254.974 -0.0434265 255.074 0.0565643 255.174 0.0565643L299.074 49.7566C299.274 49.9566 299.374 49.9566 299.574 49.9566C299.774 49.8566 299.774 49.7566 299.774 49.5566V0.556564C299.974 0.256564 300.074 0.0565643 300.274 0.0565643H313.074C313.374 0.156564 313.574 0.356564 313.574 0.556564V67.2566C313.574 67.5566 313.374 67.7566 313.074 67.7566H297.074C296.974 67.7566 296.874 67.7566 296.774 67.6566C293.574 64.0566 289.874 59.8566 285.574 55.0566C281.874 50.9566 277.474 45.9566 272.274 40.0566C267.074 34.1566 261.074 27.3566 254.374 19.6566C254.274 19.4566 254.174 19.4566 253.974 19.5566C253.774 19.6566 253.774 19.7566 253.774 19.9566V67.4566C253.774 67.7566 253.574 67.9566 253.174 67.9566H240.674C240.374 67.9566 240.274 67.8566 240.274 67.5566V0.356567H240.174Z" fill="black"/>
<path d="M325.421 0.356567C325.421 0.156567 325.521 -0.0434265 325.821 -0.0434265H338.721C339.021 -0.0434265 339.121 0.0565674 339.121 0.356567V35.8566C339.121 40.0566 339.721 43.3566 340.921 45.7566C342.121 48.1566 343.721 49.9566 345.721 51.1566C347.721 52.3566 350.021 53.1566 352.621 53.4566C355.221 53.7566 357.921 53.9566 360.721 54.0566C364.021 54.1566 366.921 53.9566 369.621 53.3566C372.321 52.7566 374.621 51.7566 376.521 50.3566C378.421 48.9566 379.921 47.0566 381.021 44.5566C382.121 42.1566 382.621 39.1566 382.621 35.4566V0.256577C382.621 0.0565765 382.721 -0.143433 383.021 -0.143433H395.921C396.121 -0.143433 396.321 -0.0434235 396.321 0.256577V34.6566C396.321 39.3566 395.821 43.3566 394.821 46.8566C393.821 50.3566 392.421 53.2566 390.721 55.6566C389.021 58.0566 386.921 60.0566 384.621 61.6566C382.321 63.2566 379.821 64.4566 377.121 65.2566C374.521 66.1566 371.721 66.7566 369.021 67.0566C366.221 67.3566 363.521 67.5566 360.821 67.5566C356.521 67.5566 352.321 67.1566 348.021 66.2566C343.821 65.3566 340.021 63.7566 336.621 61.3566C333.221 58.9566 330.521 55.5566 328.421 51.2566C326.321 46.9566 325.321 41.3566 325.321 34.6566V0.356567H325.421Z" fill="black"/>
<path d="M408.227 27.4566C408.227 27.1566 408.327 27.0566 408.627 27.0566H463.027C463.327 27.0566 463.527 27.1566 463.527 27.4566V40.3566C463.527 40.6566 463.327 40.7566 463.027 40.7566H422.027C421.827 40.7566 421.627 40.8566 421.627 41.1566V53.6566C421.627 53.8566 421.727 54.0566 422.027 54.0566H463.127C463.327 54.1566 463.427 54.2566 463.527 54.2566C463.627 54.2566 463.627 54.3566 463.627 54.5566V67.3566C463.627 67.6566 463.427 67.8566 463.127 67.8566H408.727C408.427 67.8566 408.227 67.6566 408.227 67.3566V27.4566ZM408.727 13.5566C408.427 13.5566 408.327 13.4566 408.327 13.1566V0.556564C408.427 0.256564 408.627 0.0565643 408.827 0.0565643H463.327C463.627 0.156564 463.827 0.356564 463.827 0.556564V13.1566C463.827 13.4566 463.627 13.6566 463.327 13.6566H408.727V13.5566Z" fill="black"/>
</g>
<defs>
<clipPath id="clip0_1_28">
<rect width="463.7" height="67.7" fill="white"/>
</clipPath>
</defs>
</svg>
